<svg xmlns="http://www.w3.org/2000/svg" viewBox="0 0 512 512"><defs><style>.cls-1{fill:#00b564;}.cls-2{fill:#fff;}.cls-3{fill:#dedce0;}.cls-4{fill:#cd88f8;}.cls-5{fill:#b077d8;}.cls-6{fill:#d8aaf9;}.cls-7{fill:#fc4581;}.cls-8{fill:#e23473;}.cls-9{fill:#fa3268;}.cls-10{fill:#4f4f74;}.cls-11{fill:#b0d46c;}.cls-12{fill:#27273d;}.cls-13{fill:#3e436d;}</style></defs><title>Public Transport</title><g id="BULINE"><circle class="cls-1" cx="256" cy="256" r="256"/></g><g id="Icons"><rect class="cls-2" x="137.2" y="105.88" width="241" height="291.87"/><path class="cls-3" d="M378.2,370.83v26.92h-241V105.88h32V313.06A57.78,57.78,0,0,0,227,370.83Z"/><path class="cls-4" d="M157,138.27V285.81a14.72,14.72,0,0,0,14.73,14.73H182.4a14.74,14.74,0,0,1,14.73,14.73V344a14.72,14.72,0,0,0,14.72,14.73H341.27A14.72,14.72,0,0,0,356,344V138.27a14.73,14.73,0,0,0-14.73-14.73H171.73A14.73,14.73,0,0,0,157,138.27Z"/><rect class="cls-5" x="166.12" y="132.03" width="104.64" height="131.42" rx="11.57"/><circle class="cls-6" cx="333.12" cy="162.17" r="9.07"/><circle class="cls-6" cx="333.12" cy="143.27" r="6.43"/><path class="cls-7" d="M156.2,37.67h203a19,19,0,0,1,19,19v49.22a0,0,0,0,1,0,0h-241a0,0,0,0,1,0,0V56.66A19,19,0,0,1,156.2,37.67Z"/><path class="cls-8" d="M189.38,37.67c-11.16,0-20.21,8.51-20.21,19v49.22h-32V56.66c0-10.48,9-19,20.19-19Z"/><rect class="cls-9" x="119.5" y="397.75" width="274" height="38.63" rx="10.56"/><rect class="cls-10" x="175.87" y="144.27" width="85.15" height="106.94" rx="9.42"/><path class="cls-11" d="M196.3,180.22v-4.63h5.19v4.52q8.74,1,11.42,8.3l-8.47,2.65q-1.29-3.44-5.3-3.43c-2.24,0-3.35.72-3.35,2.16a1.84,1.84,0,0,0,.56,1.34,7.85,7.85,0,0,0,3.14,1.13,58.06,58.06,0,0,1,8.41,2.3,9.3,9.3,0,0,1,4.24,3.43,9.7,9.7,0,0,1,1.69,5.71,10.25,10.25,0,0,1-3.29,7.75,15.16,15.16,0,0,1-9,3.77v4.68H196.3v-4.68q-9.8-1.17-12.31-10.31l9.47-1.76q1.22,4.17,6.14,4.17c2.56,0,3.84-.7,3.84-2.11a2,2,0,0,0-.89-1.73,8.88,8.88,0,0,0-3.17-1.08q-8.92-1.83-11.32-4.64a9.68,9.68,0,0,1-2.39-6.46,10.8,10.8,0,0,1,2.62-7.15Q190.92,181,196.3,180.22Z"/><path class="cls-11" d="M235.36,180.22v-4.63h5.19v4.52q8.74,1,11.42,8.3l-8.47,2.65q-1.29-3.44-5.3-3.43c-2.23,0-3.35.72-3.35,2.16a1.81,1.81,0,0,0,.57,1.34,7.71,7.71,0,0,0,3.13,1.13,58.06,58.06,0,0,1,8.41,2.3A9.3,9.3,0,0,1,251.2,198a9.7,9.7,0,0,1,1.69,5.71,10.25,10.25,0,0,1-3.29,7.75,15.16,15.16,0,0,1-9,3.77v4.68h-5.19v-4.68q-9.8-1.17-12.31-10.31l9.47-1.76q1.22,4.17,6.14,4.17c2.56,0,3.84-.7,3.84-2.11a2,2,0,0,0-.89-1.73,8.89,8.89,0,0,0-3.16-1.08q-8.94-1.83-11.32-4.64a9.64,9.64,0,0,1-2.4-6.46,10.8,10.8,0,0,1,2.62-7.15Q230,181,235.36,180.22Z"/><rect class="cls-5" x="283.13" y="187.37" width="57" height="19.46" rx="4.33"/><path class="cls-2" d="M290.13,206.83v35.71h.08l4.27,4a1.47,1.47,0,0,0,2,0l3.5-3.13a1.46,1.46,0,0,1,2,0l3.29,3.08a1.47,1.47,0,0,0,2,0l3.5-3.13a1.46,1.46,0,0,1,2,0l3.29,3.08a1.47,1.47,0,0,0,2,0l3.5-3.13a1.46,1.46,0,0,1,2,0l3.27,3.07a1.47,1.47,0,0,0,2,0l4.33-4h.09V206.83Z"/><rect class="cls-3" x="290.13" y="206.83" width="43" height="7.55"/><rect class="cls-12" x="190.92" y="275.21" width="55.05" height="17.33" rx="3.67"/><rect class="cls-10" x="177.56" y="52.21" width="161.26" height="39.5" rx="4.71"/><path class="cls-11" d="M209,65V85.25h-7.74V65h-5.51V58.66h18.76V65Z"/><path class="cls-11" d="M225,58.66V85.25h-8.16V58.66Z"/><path class="cls-11" d="M244.3,75.1l7.46.45a10.89,10.89,0,0,1-3.62,7.5,12.4,12.4,0,0,1-16.33-1q-3.34-3.58-3.34-9.9t3.16-10.09a10.77,10.77,0,0,1,8.81-3.84q5.28,0,8.11,2.92a12.07,12.07,0,0,1,3.21,7.76l-7.62.4a5.86,5.86,0,0,0-1-3.85,3.09,3.09,0,0,0-2.41-1.19q-3.86,0-3.86,7.75,0,4.35,1,5.91a3.15,3.15,0,0,0,2.81,1.56Q243.91,79.51,244.3,75.1Z"/><path class="cls-11" d="M278.73,85.25h-8.94l-4.59-10-2.76,3.92v6.13h-7.7V58.66h7.7v11l7.33-11h7.34l-6.72,9.73Z"/><path class="cls-11" d="M300.92,78.9v6.35h-20V58.66h20v6.13h-12v3.86h9.7v5.91h-9.7V78.9Z"/><path class="cls-11" d="M315.09,65V85.25h-7.74V65h-5.51V58.66H320.6V65Z"/><path class="cls-13" d="M437.65,436.38a256,256,0,0,1-363.3,0Z"/></g></svg>