<?xml version="1.0" encoding="UTF-8"?>
<!DOCTYPE svg PUBLIC "-//W3C//DTD SVG 1.1//EN" "http://www.w3.org/Graphics/SVG/1.1/DTD/svg11.dtd">
<!-- Creator: CorelDRAW -->
<svg xmlns="http://www.w3.org/2000/svg" xml:space="preserve" width="6.82666in" height="6.82666in" style="shape-rendering:geometricPrecision; text-rendering:geometricPrecision; image-rendering:optimizeQuality; fill-rule:evenodd; clip-rule:evenodd"
viewBox="0 0 6.82666 6.82666"
 xmlns:xlink="http://www.w3.org/1999/xlink">
 <defs>
  <style type="text/css">
   <![CDATA[
    .fil2 {fill:none}
    .fil10 {fill:#212121}
    .fil12 {fill:#2196F3}
    .fil4 {fill:#33691E}
    .fil3 {fill:#424242}
    .fil13 {fill:#455A64}
    .fil24 {fill:#4B772D}
    .fil23 {fill:#558B2F}
    .fil5 {fill:#8BC34A}
    .fil1 {fill:#90A4AE}
    .fil16 {fill:#9CCC65}
    .fil0 {fill:#B0BEC5}
    .fil14 {fill:#E1F5FE}
    .fil11 {fill:#F44336}
    .fil15 {fill:#FF9800}
    .fil7 {fill:#FFE082}
    .fil18 {fill:#FFFFFE}
    .fil19 {fill:#006064;fill-rule:nonzero}
    .fil8 {fill:#212121;fill-rule:nonzero}
    .fil22 {fill:#263238;fill-rule:nonzero}
    .fil21 {fill:#33691E;fill-rule:nonzero}
    .fil9 {fill:#424242;fill-rule:nonzero}
    .fil20 {fill:#8BC34A;fill-rule:nonzero}
    .fil6 {fill:#FB8C00;fill-rule:nonzero}
    .fil17 {fill:#FFFFFE;fill-rule:nonzero}
   ]]>
  </style>
   <clipPath id="id0">
    <path d="M3.41333 -3.93701e-006c1.88513,0 3.41333,1.5282 3.41333,3.41333 0,1.88513 -1.5282,3.41333 -3.41333,3.41333 -1.88513,0 -3.41333,-1.5282 -3.41333,-3.41333 0,-1.88513 1.5282,-3.41333 3.41333,-3.41333z"/>
   </clipPath>
 </defs>
 <g id="Layer_x0020_1">
  <metadata id="CorelCorpID_0Corel-Layer"/>
  <path class="fil0" d="M3.41333 -3.93701e-006c1.88513,0 3.41333,1.5282 3.41333,3.41333 0,1.88513 -1.5282,3.41333 -3.41333,3.41333 -1.88513,0 -3.41333,-1.5282 -3.41333,-3.41333 0,-1.88513 1.5282,-3.41333 3.41333,-3.41333z"/>
  <g style="clip-path:url(#id0)">
   <g id="_457167248">
    <g>
     <polygon id="_4432881521" class="fil1" points="3.64709,1.591 7.42361,5.37727 7.43063,5.38663 7.43673,5.39665 7.44186,5.40727 7.44596,5.41843 7.44897,5.43005 7.45082,5.44208 7.45145,5.45446 7.45145,6.65515 3.67493,2.86888 3.67493,1.66819 3.6743,1.65581 3.67244,1.64378 3.66944,1.63215 3.66533,1.621 3.6602,1.61038 3.6541,1.60036 "/>
     <polygon id="_443288752" class="fil1" points="4.65435,2.49449 8.43087,6.28076 8.43349,6.7321 4.65696,2.94583 "/>
     <polygon id="_443289448" class="fil1" points="3.59715,2.86888 7.37367,6.65515 7.37367,7.17124 3.59715,3.38497 "/>
     <polygon id="_443289208" class="fil1" points="3.59715,3.49132 7.37367,7.27759 7.37367,8.52485 3.59715,4.73858 "/>
     <polygon id="_443289280" class="fil1" points="3.95933,4.81361 7.73586,8.59988 7.73565,8.59988 3.95912,4.81361 "/>
     <polygon id="_443288848" class="fil1" points="4.06579,4.84404 7.84231,8.63031 7.8424,8.63906 7.84259,8.64789 7.8429,8.65678 7.84333,8.66572 7.84389,8.67471 7.84459,8.68373 7.84543,8.69277 7.84641,8.70182 7.84755,8.71088 7.84885,8.71993 7.85033,8.72896 7.85198,8.73796 7.85381,8.74693 7.85583,8.75585 7.85806,8.7647 7.86048,8.77349 7.86311,8.7822 7.86596,8.79082 7.86903,8.79934 7.87233,8.80775 7.87587,8.81604 7.87966,8.8242 7.88369,8.83222 7.88798,8.84009 7.89254,8.8478 7.89737,8.85533 7.90247,8.86269 7.90786,8.86985 7.91354,8.87681 7.91952,8.88357 7.9258,8.89009 7.9324,8.89639 4.15587,5.11012 4.14928,5.10382 4.14299,5.0973 4.13701,5.09054 4.13133,5.08358 4.12594,5.07642 4.12084,5.06906 4.11601,5.06152 4.11145,5.05382 4.10716,5.04595 4.10313,5.03793 4.09934,5.02977 4.0958,5.02148 4.0925,5.01307 4.08943,5.00455 4.08658,4.99593 4.08395,4.98722 4.08153,4.97843 4.07931,4.96957 4.07728,4.96066 4.07545,4.95169 4.0738,4.94269 4.07233,4.93366 4.07102,4.92461 4.06988,4.91555 4.0689,4.9065 4.06806,4.89746 4.06737,4.88844 4.06681,4.87945 4.06637,4.87051 4.06607,4.86162 4.06587,4.85279 "/>
     <polygon id="_443288944" class="fil1" points="4.3509,5.27993 8.12743,9.0662 8.10738,9.06627 4.33085,5.28 "/>
     <polygon id="_443289376" class="fil1" points="4.33085,5.28 8.10738,9.06627 8.09887,9.06594 8.0904,9.06548 8.08194,9.06487 8.07352,9.06412 8.06513,9.06322 8.05676,9.06217 8.04844,9.06098 8.04016,9.05962 8.03192,9.05811 8.02372,9.05645 8.01557,9.05462 8.00748,9.05263 7.99944,9.05047 7.99146,9.04814 7.98353,9.04565 7.97567,9.04298 7.96787,9.04013 7.96014,9.03711 7.95248,9.03391 7.9449,9.03052 7.93739,9.02694 7.92996,9.02319 7.92262,9.01924 7.91536,9.0151 7.90819,9.01076 7.9011,9.00623 7.89411,9.0015 7.88722,8.99656 7.88043,8.99143 7.87374,8.98608 7.86716,8.98052 7.86068,8.97476 4.08415,5.18849 4.09063,5.19425 4.09722,5.19981 4.10391,5.20515 4.1107,5.21029 4.11759,5.21522 4.12457,5.21996 4.13166,5.22449 4.13883,5.22883 4.14609,5.23297 4.15344,5.23692 4.16086,5.24067 4.16837,5.24424 4.17596,5.24763 4.18361,5.25083 4.19134,5.25386 4.19914,5.2567 4.207,5.25937 4.21493,5.26187 4.22291,5.2642 4.23095,5.26635 4.23905,5.26835 4.2472,5.27018 4.25539,5.27184 4.26363,5.27335 4.27191,5.2747 4.28024,5.2759 4.2886,5.27695 4.29699,5.27785 4.30542,5.2786 4.31387,5.27921 4.32235,5.27967 "/>
     <polygon id="_443289520" class="fil1" points="4.06614,4.3087 7.84267,8.09497 7.84266,8.11075 7.84264,8.12653 7.84263,8.14231 7.84262,8.15809 7.84261,8.17386 7.84261,8.18964 7.8426,8.20542 7.84259,8.2212 7.84259,8.23698 7.84258,8.25276 7.84258,8.26853 7.84257,8.28431 7.84257,8.30009 7.84257,8.31587 7.84257,8.33165 7.84257,8.34743 7.84257,8.3632 7.84257,8.37898 7.84257,8.39476 7.84257,8.41054 7.84257,8.42632 7.84258,8.4421 7.84258,8.45787 7.84258,8.47365 7.84258,8.48943 7.84259,8.50521 7.84259,8.52099 7.84259,8.53677 7.84259,8.55255 7.84259,8.56833 7.84259,8.5841 7.84259,8.59988 4.06607,4.81361 4.06607,4.79783 4.06606,4.78206 4.06606,4.76628 4.06606,4.7505 4.06606,4.73472 4.06606,4.71894 4.06606,4.70316 4.06606,4.68738 4.06605,4.6716 4.06605,4.65583 4.06605,4.64005 4.06605,4.62427 4.06605,4.60849 4.06604,4.59271 4.06604,4.57693 4.06604,4.56115 4.06604,4.54537 4.06604,4.5296 4.06605,4.51382 4.06605,4.49804 4.06605,4.48226 4.06606,4.46648 4.06606,4.4507 4.06606,4.43493 4.06607,4.41915 4.06608,4.40337 4.06609,4.38759 4.06609,4.37181 4.0661,4.35604 4.06611,4.34026 4.06613,4.32448 "/>
     <polygon id="_443289088" class="fil1" points="3.78185,3.51442 7.55837,7.30069 7.55415,7.29874 7.54968,7.29677 7.54498,7.29479 7.54011,7.29282 7.53507,7.29089 7.5299,7.28902 7.52464,7.28723 7.51932,7.28554 7.51397,7.28396 7.50861,7.28252 7.50329,7.28125 7.49803,7.28016 7.49287,7.27927 7.48782,7.2786 7.48294,7.27818 7.47824,7.27802 3.70171,3.49175 3.70641,3.49191 3.7113,3.49233 3.71634,3.493 3.7215,3.49389 3.72676,3.49498 3.73209,3.49625 3.73744,3.49769 3.7428,3.49926 3.74811,3.50096 3.75337,3.50275 3.75854,3.50462 3.76358,3.50655 3.76846,3.50852 3.77315,3.5105 3.77763,3.51247 "/>
     <polygon id="_443289352" class="fil1" points="3.70171,3.49175 7.47824,7.27802 7.37367,7.27759 3.59715,3.49132 "/>
     <polygon id="_443289064" class="fil1" points="3.67493,2.86888 7.45145,6.65515 7.37367,6.65515 3.59715,2.86888 "/>
     <polygon id="_443289760" class="fil1" points="4.0668,3.82408 7.84333,7.61035 7.84333,7.6255 7.84332,7.64064 7.84331,7.65579 7.8433,7.67093 7.84329,7.68607 7.84328,7.70122 7.84326,7.71637 7.84324,7.73151 7.84322,7.74665 7.8432,7.7618 7.84318,7.77694 7.84316,7.79209 7.84313,7.80723 7.84311,7.82237 7.84308,7.83752 7.84306,7.85267 7.84303,7.86781 7.843,7.88295 7.84297,7.89809 7.84294,7.91324 7.84292,7.92839 7.84289,7.94353 7.84286,7.95867 7.84283,7.97382 7.84281,7.98896 7.84279,8.00411 7.84276,8.01925 7.84274,8.03439 7.84272,8.04954 7.8427,8.06469 7.84269,8.07983 7.84267,8.09497 4.06614,4.3087 4.06616,4.29356 4.06617,4.27841 4.06619,4.26327 4.06621,4.24812 4.06624,4.23298 4.06626,4.21783 4.06628,4.20269 4.06631,4.18755 4.06633,4.1724 4.06636,4.15726 4.06639,4.14211 4.06642,4.12697 4.06644,4.11182 4.06647,4.09668 4.0665,4.08154 4.06653,4.06639 4.06656,4.05125 4.06658,4.0361 4.06661,4.02096 4.06663,4.00581 4.06665,3.99067 4.06668,3.97553 4.0667,3.96038 4.06672,3.94524 4.06674,3.93009 4.06675,3.91495 4.06676,3.8998 4.06678,3.88466 4.06679,3.86952 4.0668,3.85437 4.0668,3.83923 "/>
     <polygon id="_443289616" class="fil1" points="3.59715,4.73858 7.37367,8.52485 7.37367,8.56106 3.59715,4.77478 "/>
     <polygon id="_443289640" class="fil1" points="3.59715,4.77478 7.37367,8.56106 7.37367,8.91374 3.59715,5.12747 "/>
     <polygon id="_443290024" class="fil1" points="3.59715,5.12747 7.37367,8.91374 7.37367,9.06625 3.59715,5.27998 "/>
     <polygon id="_443289880" class="fil1" points="1.96577,4.3268 5.7423,8.11307 5.66452,8.11307 1.88799,4.3268 "/>
     <polygon id="_443290120" class="fil1" points="3.59715,5.27998 7.37367,9.06625 5.7423,9.06625 1.96577,5.27998 "/>
     <polygon id="_443290240" class="fil1" points="4.65696,2.94583 8.43349,6.7321 8.43366,6.76203 4.65713,2.97576 "/>
     <polygon id="_443289976" class="fil1" points="3.87311,3.5803 7.64963,7.36657 7.64353,7.36036 7.63726,7.35432 7.63083,7.34846 7.62423,7.3428 7.61748,7.33731 7.61057,7.33202 7.60352,7.32693 7.59633,7.32204 7.58899,7.31735 7.58153,7.31287 7.57393,7.30859 7.56621,7.30454 7.55837,7.30069 3.78185,3.51442 3.78969,3.51826 3.79741,3.52232 3.805,3.52659 3.81246,3.53108 3.8198,3.53577 3.82699,3.54066 3.83404,3.54575 3.84095,3.55104 3.8477,3.55652 3.8543,3.56219 3.86074,3.56805 3.867,3.57409 "/>
     <polygon id="_443290096" class="fil1" points="3.94883,3.50556 7.72536,7.29183 7.72963,7.29626 7.73383,7.30076 7.73795,7.30533 7.74201,7.30997 7.74599,7.31469 7.74989,7.31946 3.97337,3.53319 3.96946,3.52841 3.96548,3.5237 3.96143,3.51906 3.9573,3.51449 3.9531,3.50999 "/>
     <polygon id="_443289688" class="fil1" points="3.97337,3.53319 7.74989,7.31946 7.75606,7.32735 7.762,7.33533 7.76769,7.34341 7.77316,7.3516 7.77841,7.35987 7.78342,7.36824 7.78821,7.3767 7.79278,7.38526 7.79714,7.39389 7.80128,7.40261 7.80521,7.41141 7.80893,7.42028 7.81244,7.42923 7.81575,7.43826 7.81885,7.44735 7.82176,7.45652 7.82447,7.46574 7.82698,7.47504 7.82931,7.48439 7.83144,7.4938 7.8334,7.50327 7.83517,7.51279 7.83675,7.52235 7.83816,7.53197 7.83939,7.54164 7.84045,7.55135 7.84134,7.56109 7.84206,7.57088 7.84262,7.5807 7.84302,7.59056 7.84325,7.60044 7.84333,7.61035 4.0668,3.82408 4.06672,3.81417 4.06649,3.80428 4.06609,3.79443 4.06554,3.78461 4.06481,3.77482 4.06393,3.76507 4.06286,3.75537 4.06163,3.7457 4.06022,3.73608 4.05864,3.72652 4.05687,3.717 4.05492,3.70753 4.05278,3.69812 4.05046,3.68876 4.04794,3.67947 4.04523,3.67024 4.04232,3.66108 4.03922,3.65198 4.03591,3.64296 4.0324,3.63401 4.02868,3.62513 4.02475,3.61633 4.02061,3.60762 4.01626,3.59898 4.01169,3.59043 4.00689,3.58197 4.00188,3.5736 3.99663,3.56533 3.99117,3.55714 3.98547,3.54906 3.97954,3.54107 "/>
     <path id="_443289592" class="fil1" d="M8.26336 6.76302l0 0zm-3.77653 -3.78627l0 0z"/>
     <polygon id="_443290552" class="fil1" points="4.76576,4.86065 8.54228,8.64693 8.54189,8.65835 8.54133,8.66978 8.5406,8.6812 8.53969,8.69261 8.53859,8.704 8.53729,8.71535 8.53579,8.72667 8.53407,8.73795 8.53215,8.74917 8.53,8.76033 8.52762,8.77143 8.525,8.78245 8.52214,8.79339 8.51903,8.80423 8.51566,8.81498 8.51203,8.82561 8.50813,8.83614 8.50394,8.84654 8.49948,8.85681 8.49472,8.86694 8.48966,8.87693 8.4843,8.88677 8.47863,8.89644 8.47263,8.90595 8.46631,8.91528 8.45966,8.92442 8.45267,8.93337 8.44533,8.94213 8.43763,8.95067 8.42958,8.959 8.42116,8.96711 8.41236,8.97498 4.63583,5.18871 4.64463,5.18083 4.65305,5.17273 4.66111,5.1644 4.6688,5.15585 4.67614,5.1471 4.68313,5.13815 4.68978,5.129 4.6961,5.11968 4.7021,5.11017 4.70777,5.1005 4.71313,5.09066 4.71819,5.08067 4.72295,5.07054 4.72742,5.06027 4.7316,5.04987 4.7355,5.03934 4.73913,5.0287 4.7425,5.01796 4.74561,5.00711 4.74847,4.99618 4.75109,4.98516 4.75347,4.97406 4.75562,4.9629 4.75755,4.95168 4.75926,4.9404 4.76076,4.92908 4.76206,4.91772 4.76316,4.90634 4.76407,4.89493 4.76481,4.88351 4.76537,4.87208 "/>
     <polygon id="_443290360" class="fil1" points="4.06607,4.81361 7.84259,8.59988 7.8422,8.59988 4.06567,4.81361 "/>
     <polygon id="_443290456" class="fil1" points="4.06567,4.81361 7.8422,8.59988 7.84231,8.63031 4.06579,4.84404 "/>
     <polygon id="_443290600" class="fil1" points="4.32282,5.17261 8.09935,8.95888 8.09935,8.95996 4.32282,5.17369 "/>
     <polygon id="_443290960" class="fil1" points="4.35156,5.27992 8.12808,9.06619 8.12743,9.0662 4.3509,5.27993 "/>
     <polygon id="_443290648" class="fil1" points="4.63583,5.18871 8.41236,8.97498 8.40487,8.98125 8.39725,8.98726 8.3895,8.99302 8.38163,8.99852 8.37363,9.00377 8.36551,9.00877 8.35729,9.01354 8.34895,9.01806 8.34051,9.02235 8.33198,9.02641 8.32335,9.03025 8.31463,9.03387 8.30582,9.03727 8.29693,9.04046 8.28796,9.04344 8.27893,9.04621 8.26982,9.04878 8.26065,9.05117 8.25143,9.05335 8.24214,9.05535 8.23281,9.05717 8.22343,9.0588 8.21401,9.06026 8.20455,9.06155 8.19506,9.06267 8.18554,9.06363 8.176,9.06443 8.16644,9.06507 8.15686,9.06557 8.14727,9.06592 8.13768,9.06613 8.12808,9.06619 4.35156,5.27992 4.36115,5.27985 4.37074,5.27965 4.38033,5.2793 4.38991,5.2788 4.39947,5.27816 4.40901,5.27736 4.41853,5.2764 4.42802,5.27528 4.43748,5.27399 4.4469,5.27253 4.45628,5.27089 4.46561,5.26908 4.4749,5.26708 4.48413,5.26489 4.4933,5.26251 4.5024,5.25994 4.51144,5.25717 4.5204,5.25419 4.52929,5.251 4.5381,5.2476 4.54682,5.24398 4.55545,5.24014 4.56398,5.23608 4.57243,5.23179 4.58076,5.22726 4.58898,5.2225 4.5971,5.2175 4.6051,5.21225 4.61297,5.20675 4.62072,5.20099 4.62835,5.19498 "/>
     <path id="_443290744" class="fil1" d="M8.1446 6.6456l0 0zm-3.77653 -3.78627l0 0z"/>
     <polygon id="_443290912" class="fil1" points="4.65713,2.97576 8.43366,6.76203 8.40372,6.76221 4.62719,2.97594 "/>
     <polygon id="_443290672" class="fil1" points="4.52294,1.58035 8.29947,5.36663 8.3026,5.37135 4.52607,1.58508 "/>
     <polygon id="_443291032" class="fil1" points="4.52607,1.58508 8.3026,5.37135 8.45749,5.60484 4.68096,1.81857 "/>
     <polygon id="_443290696" class="fil1" points="4.68096,1.81857 8.45749,5.60484 8.46043,5.60918 8.46352,5.61362 8.46666,5.61815 8.46976,5.62276 8.47274,5.62744 8.47552,5.63217 8.478,5.63694 8.48009,5.64174 4.70356,1.85547 4.70147,1.85067 4.69899,1.84589 4.69622,1.84117 4.69323,1.83649 4.69013,1.83188 4.68699,1.82735 4.68391,1.82291 "/>
     <polygon id="_454607416" class="fil1" points="4.70356,1.85547 8.48009,5.64174 8.48192,5.6468 8.48352,5.65193 8.48488,5.65711 8.486,5.66235 8.48689,5.66763 8.48753,5.67295 8.48793,5.67831 8.48809,5.68369 4.71156,1.89741 4.71141,1.89204 4.711,1.88668 4.71036,1.88136 4.70948,1.87607 4.70835,1.87084 4.70699,1.86565 4.70539,1.86053 "/>
     <polygon id="_454606816" class="fil1" points="4.71156,1.89741 8.48809,5.68369 8.48906,5.85083 4.71253,2.06456 "/>
     <polygon id="_454607080" class="fil1" points="4.71253,2.06456 8.48906,5.85083 8.48906,5.8512 4.71253,2.06493 "/>
     <polygon id="_454606912" class="fil1" points="4.71253,2.06493 8.48906,5.8512 8.48926,5.88678 4.71274,2.10051 "/>
     <polygon id="_454606840" class="fil1" points="4.71274,2.10051 8.48926,5.88678 8.48362,5.88681 4.70709,2.10054 "/>
     <polygon id="_454607056" class="fil1" points="4.70709,2.10054 8.48362,5.88681 8.42276,5.88717 4.64623,2.10089 "/>
     <polygon id="_454606960" class="fil1" points="4.64623,2.10089 8.42276,5.88717 8.36544,5.8875 4.58891,2.10122 "/>
     <polygon id="_454607176" class="fil1" points="4.76561,3.02443 8.54214,6.8107 8.54214,6.84169 4.76561,3.05542 "/>
     <polygon id="_454607248" class="fil1" points="4.76561,3.05542 8.54214,6.84169 8.54228,6.84169 4.76576,3.05542 "/>
     <polygon id="_454607464" class="fil1" points="4.62719,2.97594 8.40372,6.76221 8.37413,6.76238 4.59761,2.97611 "/>
     <polygon id="_454607848" class="fil1" points="4.59761,2.97611 8.37413,6.76238 8.26336,6.76302 4.48683,2.97675 "/>
     <polygon id="_454607968" class="fil1" points="4.40316,2.94258 8.17969,6.72885 8.17576,6.72478 4.39923,2.93851 "/>
     <polygon id="_454608112" class="fil1" points="4.48683,2.97675 8.26336,6.76302 8.25729,6.7629 8.2513,6.76248 8.24539,6.76176 8.23958,6.76075 8.23386,6.75946 8.22825,6.7579 8.22276,6.75607 8.21738,6.75398 8.21214,6.75164 8.20703,6.74906 8.20207,6.74623 8.19726,6.74319 8.19261,6.73991 8.18812,6.73643 8.18381,6.73274 8.17969,6.72885 4.40316,2.94258 4.40729,2.94647 4.41159,2.95016 4.41608,2.95364 4.42073,2.95691 4.42554,2.95996 4.4305,2.96278 4.43561,2.96537 4.44085,2.9677 4.44623,2.9698 4.45172,2.97163 4.45733,2.97319 4.46305,2.97448 4.46887,2.97549 4.47477,2.9762 4.48076,2.97663 "/>
     <polygon id="_454607872" class="fil1" points="4.76561,3.05542 8.54214,6.84169 8.54228,8.64693 4.76576,4.86065 "/>
     <polygon id="_454608040" class="fil1" points="4.78524,2.13764 8.56176,5.92391 8.43087,6.28076 4.65435,2.49449 "/>
    </g>
    <path id="_457167632" class="fil1" d="M4.76576 3.05542l-0.000141732 0 0.000141732 0zm-0.106484 0.00061811l-3.93701e-006 -0.0316024 0.106343 0 3.93701e-006 0.0309843 0.000141732 1.80524c-0.00328346,0.121839 -0.0340866,0.245311 -0.129921,0.328055 -0.0791339,0.0683307 -0.181933,0.0912126 -0.28428,0.0912126l-0.000653543 3.93701e-006 -0.0200512 7.48031e-005c-0.0907992,-0.00274409 -0.178197,-0.028874 -0.246697,-0.0915118 -0.0957441,-0.087563 -0.123736,-0.219177 -0.124709,-0.344039l0 -0.00026378 -0.000114173 -0.0305748 -0.000208661 0c3.93701e-005,-0.168287 0.000523622,-0.336579 0.000677165,-0.504866 0.000149606,-0.161551 5.11811e-005,-0.323106 5.11811e-005,-0.484661 0,-0.080374 -0.0183504,-0.160398 -0.0695079,-0.224102 -0.0291732,-0.0363268 -0.066378,-0.0656575 -0.108496,-0.0855591 -0.0217913,-0.0102913 -0.0556378,-0.0225748 -0.0801339,-0.0226732l-0.104567 -0.000429134 0 1.24726 0 0.0362047 0 0.352685 0 0.152508 -1.63137 0 0 -0.152508 0 -0.352685 0 -0.0362047 0 -0.411783 -0.0777795 0 0 -2.65861c0,-0.0668346 0.054685,-0.121528 0.121528,-0.121528l1.54388 0c0.0668425,0 0.121528,0.054685 0.121528,0.121528l0 1.20069 -0.0777795 0 0 0.516094 0.10885 0.000456693c0.0324449,0.000275591 0.0825433,0.017626 0.111752,0.0304843 0.0601299,0.0264685 0.114358,0.0659055 0.155618,0.11728 0.067063,0.0835079 0.0934331,0.185 0.0934331,0.29089 0,0.161539 -0.000507874,0.323079 -0.00065748,0.484618 -0.000153543,0.168299 -8.26772e-005,0.336606 -7.48031e-005,0.504909l-0.000393701 0 0.000114173 0.0304291c0.000354331,0.0929252 0.0180472,0.200197 0.0900827,0.266079 0.0457441,0.0418346 0.106256,0.0590197 0.166949,0.0624882l0 0.00108661 0.0279449 -0.000114173c0.0753465,-0.00030315 0.156642,-0.0146575 0.215358,-0.0653543 0.0694291,-0.0599488 0.0896654,-0.157244 0.0925906,-0.245992l0.000700787 0 -0.000141732 -1.8062zm-0.172441 -0.0792874l0 0zm-0.11876 -0.117417l0 0zm0.21898 -0.793669l-0.00931496 -0.177992 -0.158303 -0.23865 0.103512 -0.0686654 0.00312992 0.00472441 0.15489 0.233492c0.0075748,0.0114134 0.0176102,0.024063 0.0225945,0.0369016 0.00519685,0.0133898 0.00791732,0.0275748 0.008,0.0419409l0.000968504 0.167142 3.93701e-006 0.000374016 0.000204724 0.0355827 -0.00564173 3.14961e-005 -0.0608661 0.000350394 -0.0573189 0.000330709 -0.000283465 -0.00543307 -0.0015748 -0.0301299zm0.0672953 0.428827l0.00261811 0.451339 0.000169291 0.0299331 -0.0299449 0.000177165 -0.0295827 0.000173228 -0.110776 0.000637795c-0.0325472,0.000188976 -0.0621693,-0.0129134 -0.0836693,-0.0341654 -0.0214764,-0.0212283 -0.0349016,-0.050685 -0.0350906,-0.083252l-0.00159449 -0.275028c-0.000188976,-0.0325512 0.0129094,-0.0621772 0.0341693,-0.0836811 0.0212244,-0.0214764 0.050685,-0.0349016 0.0832441,-0.0350906l0.110752 -0.000641732 0.0295945 -0.000173228 0.161 -0.327075 -0.13089 0.356846z"/>
   </g>
  </g>
  <path class="fil2" d="M3.41333 -3.93701e-006c1.88513,0 3.41333,1.5282 3.41333,3.41333 0,1.88513 -1.5282,3.41333 -3.41333,3.41333 -1.88513,0 -3.41333,-1.5282 -3.41333,-3.41333 0,-1.88513 1.5282,-3.41333 3.41333,-3.41333z"/>
  <path class="fil3" d="M3.50959 3.49096l0.00042126 -0.106346 0.195984 0.000818898c0.0324449,0.000275591 0.0825433,0.017626 0.111752,0.0304843 0.0601299,0.0264685 0.114358,0.0659055 0.155618,0.11728 0.067063,0.0835079 0.0934331,0.185 0.0934331,0.29089 0,0.161539 -0.000507874,0.323079 -0.00065748,0.484618 -0.000153543,0.168299 -8.26772e-005,0.336606 -7.48031e-005,0.504909l-0.000393701 0 0.000114173 0.0304291c0.000354331,0.0929252 0.0180472,0.200197 0.0900827,0.266079 0.0457441,0.0418346 0.106256,0.0590197 0.166949,0.0624882l0 0.00108661 0.0279449 -0.000114173c0.0753465,-0.00030315 0.156642,-0.0146575 0.215358,-0.0653543 0.0694291,-0.0599488 0.0896654,-0.157244 0.0925906,-0.245992l0.000700787 0 -0.000145669 -1.8378 0.106343 0 0.000145669 1.83622c-0.00328346,0.121839 -0.0340866,0.245311 -0.129921,0.328055 -0.0791339,0.0683307 -0.181933,0.0912126 -0.28428,0.0912126l-0.000653543 3.93701e-006 -0.0200512 7.48031e-005c-0.0907992,-0.00274409 -0.178197,-0.028874 -0.246697,-0.0915118 -0.0957441,-0.087563 -0.123736,-0.219177 -0.124709,-0.344039l0 -0.00026378 -0.000114173 -0.0305748 -0.000208661 0c3.93701e-005,-0.168287 0.000523622,-0.336579 0.000677165,-0.504866 0.000149606,-0.161551 5.11811e-005,-0.323106 5.11811e-005,-0.484661 0,-0.080374 -0.0183504,-0.160398 -0.0695079,-0.224102 -0.0291732,-0.0363268 -0.066378,-0.0656575 -0.108496,-0.0855591 -0.0217913,-0.0102913 -0.0556378,-0.0225748 -0.0801339,-0.0226732l-0.192122 -0.000791339z"/>
  <path class="fil4" d="M3.4862 1.69901l-1.40948 0c-0.0610236,0 -0.110949,0.0499252 -0.110949,0.110945l0 3.47002 1.63137 0 0 -3.47002c0,-0.0610236 -0.0499252,-0.110945 -0.110949,-0.110945z"/>
  <path class="fil5" d="M3.5534 1.54666l-1.54388 0c-0.0668425,0 -0.121528,0.0546929 -0.121528,0.121528l0 2.65861 1.01111 0 0 -1.45792 0.775827 0 0 -1.20069c0,-0.0668425 -0.054685,-0.121528 -0.121528,-0.121528z"/>
  <polygon class="fil6" points="2.20013,1.85777 3.36576,1.85777 3.36576,2.47358 2.20013,2.47358 "/>
  <polygon class="fil7" points="2.24874,1.90638 3.31715,1.90638 3.31715,2.42497 2.24874,2.42497 "/>
  <path class="fil8" d="M3.24909 2.98796l3.93701e-006 0c0.032,0 0.0611535,0.0131535 0.0823346,0.0343307 0.0211772,0.0211772 0.0343268,0.0503307 0.0343268,0.0823346l0 0.544441c0,0.0320039 -0.0131496,0.0611575 -0.0343268,0.0823346 -0.0211811,0.0211811 -0.0503346,0.0343307 -0.0823346,0.0343307l-3.93701e-006 0c-0.0320039,0 -0.0611535,-0.0131496 -0.0823346,-0.0343307 -0.0211772,-0.0211772 -0.0343307,-0.0503307 -0.0343307,-0.0823346l0 -0.544441c0,-0.0320039 0.0131535,-0.0611575 0.0343307,-0.0823346 0.0211811,-0.0211772 0.0503307,-0.0343307 0.0823346,-0.0343307z"/>
  <path class="fil9" d="M3.24909 3.1537l3.93701e-006 0c0.0234094,0 0.0447362,0.00962205 0.0602283,0.0251102 0.0154921,0.0154961 0.0251102,0.0368189 0.0251102,0.0602323l0 0.398272c0,0.0234094 -0.00961811,0.0447323 -0.0251102,0.0602283 -0.0154921,0.0154921 -0.0368189,0.0251102 -0.0602283,0.0251102l-3.93701e-006 0c-0.0234094,0 -0.0447362,-0.00961811 -0.0602283,-0.0251102 -0.0154921,-0.0154961 -0.0251142,-0.0368189 -0.0251142,-0.0602283l0 -0.398272c0,-0.0234134 0.00962205,-0.0447362 0.0251142,-0.0602323 0.0154921,-0.0154882 0.0368189,-0.0251102 0.0602283,-0.0251102z"/>
  <path class="fil10" d="M2.75827 2.73106c0.0391535,0 0.0708937,-0.0317402 0.0708937,-0.0708937 0,-0.0391535 -0.0317402,-0.0708937 -0.0708937,-0.0708937 -0.0391535,0 -0.0708937,0.0317402 -0.0708937,0.0708937 0,0.0391535 0.0317402,0.0708937 0.0708937,0.0708937z"/>
  <path class="fil11" d="M2.75827 2.70206c0.0231378,0 0.0418937,-0.0187559 0.0418937,-0.0418937 0,-0.0231378 -0.0187559,-0.0418937 -0.0418937,-0.0418937 -0.0231378,0 -0.0418937,0.0187559 -0.0418937,0.0418937 0,0.0231378 0.0187559,0.0418937 0.0418937,0.0418937z"/>
  <path class="fil10" d="M2.75827 2.73106c0.0391535,0 0.0708937,-0.0317402 0.0708937,-0.0708937 0,-0.0391535 -0.0317402,-0.0708937 -0.0708937,-0.0708937 -0.0391535,0 -0.0708937,0.0317402 -0.0708937,0.0708937 0,0.0391535 0.0317402,0.0708937 0.0708937,0.0708937z"/>
  <path class="fil11" d="M2.75827 2.70206c0.0231378,0 0.0418937,-0.0187559 0.0418937,-0.0418937 0,-0.0231378 -0.0187559,-0.0418937 -0.0418937,-0.0418937 -0.0231378,0 -0.0418937,0.0187559 -0.0418937,0.0418937 0,0.0231378 0.0187559,0.0418937 0.0418937,0.0418937z"/>
  <path class="fil10" d="M2.54008 2.73106c0.0391535,0 0.0708898,-0.0317402 0.0708898,-0.0708937 0,-0.0391535 -0.0317362,-0.0708937 -0.0708898,-0.0708937 -0.0391535,0 -0.0708937,0.0317402 -0.0708937,0.0708937 0,0.0391535 0.0317402,0.0708937 0.0708937,0.0708937z"/>
  <path class="fil12" d="M2.54008 2.70206c0.0231378,0 0.0418898,-0.0187559 0.0418898,-0.0418937 0,-0.0231378 -0.018752,-0.0418937 -0.0418898,-0.0418937 -0.0231378,0 -0.0418937,0.0187559 -0.0418937,0.0418937 0,0.0231378 0.0187559,0.0418937 0.0418937,0.0418937z"/>
  <path class="fil10" d="M2.31963 2.73106c0.0391535,0 0.0708937,-0.0317402 0.0708937,-0.0708937 0,-0.0391535 -0.0317402,-0.0708937 -0.0708937,-0.0708937 -0.0391535,0 -0.0708937,0.0317402 -0.0708937,0.0708937 0,0.0391535 0.0317402,0.0708937 0.0708937,0.0708937z"/>
  <path class="fil5" d="M2.31963 2.70206c0.0231378,0 0.0418937,-0.0187559 0.0418937,-0.0418937 0,-0.0231378 -0.0187559,-0.0418937 -0.0418937,-0.0418937 -0.0231378,0 -0.0418937,0.0187559 -0.0418937,0.0418937 0,0.0231378 0.0187559,0.0418937 0.0418937,0.0418937z"/>
  <rect class="fil13" x="2.53129" y="2.88857" width="0.11844" height="0.106762"/>
  <rect class="fil14" x="2.53129" y="2.86888" width="0.11844" height="0.106762"/>
  <rect class="fil13" x="2.32631" y="2.88857" width="0.11844" height="0.106762"/>
  <rect class="fil14" x="2.32631" y="2.86888" width="0.11844" height="0.106762"/>
  <rect class="fil13" x="2.12132" y="2.88857" width="0.11844" height="0.106762"/>
  <rect class="fil14" x="2.12132" y="2.86888" width="0.11844" height="0.106762"/>
  <rect class="fil13" x="2.53129" y="3.05664" width="0.11844" height="0.106762"/>
  <rect class="fil14" x="2.53129" y="3.03694" width="0.11844" height="0.106762"/>
  <rect class="fil13" x="2.53129" y="3.2247" width="0.11844" height="0.106762"/>
  <rect class="fil14" x="2.53129" y="3.205" width="0.11844" height="0.106762"/>
  <rect class="fil13" x="2.32631" y="3.05664" width="0.11844" height="0.106762"/>
  <rect class="fil14" x="2.32631" y="3.03694" width="0.11844" height="0.106762"/>
  <rect class="fil13" x="2.32631" y="3.2247" width="0.11844" height="0.106762"/>
  <rect class="fil14" x="2.32631" y="3.205" width="0.11844" height="0.106762"/>
  <rect class="fil13" x="2.12132" y="3.05664" width="0.11844" height="0.106762"/>
  <rect class="fil14" x="2.12132" y="3.03694" width="0.11844" height="0.106762"/>
  <rect class="fil13" x="2.12132" y="3.2247" width="0.11844" height="0.106762"/>
  <rect class="fil14" x="2.12132" y="3.205" width="0.11844" height="0.106762"/>
  <rect class="fil15" x="1.96577" y="4.73858" width="1.63137" height="0.388888"/>
  <rect class="fil16" x="1.96577" y="4.73858" width="1.63137" height="0.0361998"/>
  <path class="fil17" d="M4.63876 2.53113c-0.0343307,0.113024 -0.0840512,0.195039 -0.125012,0.26261 -0.0118228,0.0195 -0.0229016,0.0377835 -0.0320709,0.0541969 -0.0184764,0.022874 -0.0538071,-0.00273622 -0.049126,-0.0275748 0.0102283,-0.0183189 0.0212362,-0.0364803 0.0329764,-0.0558465 0.0394882,-0.0651417 0.0874213,-0.144213 0.11948,-0.249756l0.053752 0.0163701z"/>
  <path class="fil17" d="M4.65435 2.49449l0.00261811 0.451339 0.000169291 0.0299331 -0.0299449 0.000177165 -0.140346 0.000814961 -1.1811e-005 -3.93701e-006c-0.0325472,0.000188976 -0.0621693,-0.0129134 -0.0836693,-0.0341654 -0.0214764,-0.0212283 -0.0349016,-0.050685 -0.0350945,-0.0832441l3.93701e-006 -7.87402e-006 -0.00159449 -0.275028c-0.000188976,-0.0325512 0.0129094,-0.0621772 0.0341693,-0.0836811 0.0212244,-0.0214764 0.050685,-0.0349016 0.0832441,-0.0350906l0.140346 -0.000814961 0.029937 -0.000177165 0.000173228 0.0299488zm-0.0574409 0.42174l-0.00226772 -0.391453 -0.110413 0.000637795c-0.0159213,9.44882e-005 -0.0304252,0.00676378 -0.0409646,0.0174252 -0.0105157,0.0106299 -0.0169921,0.0252008 -0.0169016,0.0411299l0.00159449 0.275031 0 7.87402e-006c9.44882e-005,0.0159213 0.00675984,0.0304213 0.0174252,0.0409606 0.0106299,0.0105118 0.0252008,0.0169921 0.041126,0.0168976l7.87402e-006 3.93701e-006 0.110394 -0.000641732zm-0.110402 0.000637795l7.87402e-006 3.93701e-006m-0.118445 -0.0575315l3.93701e-006 -7.87402e-006"/>
  <path class="fil18" d="M4.71274 2.10051l-0.00564173 3.14961e-005 -0.118185 0.000681102 -0.000283465 -0.00543307 -0.0108898 -0.208122 -0.158303 -0.23865 0.103512 -0.0686654 0.00312992 0.00472441 0.15489 0.233492c0.0075748,0.0114134 0.0176102,0.024063 0.0225945,0.0369016 0.00519685,0.0133898 0.00791732,0.0275748 0.008,0.0419409l0.00117717 0.203098z"/>
  <polygon class="fil19" points="4.82463,2.61023 4.82703,3.02513 4.8272,3.05506 4.79726,3.05524 4.62801,3.05622 4.59807,3.05639 4.5979,3.02644 4.59464,2.46401 4.48636,2.46464 4.45642,2.46481 4.45625,2.43487 4.45428,2.09637 4.45411,2.06643 4.48406,2.06626 4.79152,2.06447 4.81525,2.06433 4.82075,2.08744 4.93174,2.55397 4.93867,2.58309 4.90965,2.59 "/>
  <polygon class="fil20" points="4.76576,3.05542 4.76516,3.05543 4.62801,3.05622 4.59807,3.05639 4.59789,3.02645 4.59464,2.46401 4.48636,2.46464 4.45642,2.46481 4.45625,2.43487 4.45429,2.09637 4.45411,2.06643 4.48406,2.06626 4.76289,2.06464 4.76576,2.06463 "/>
  <polygon class="fil21" points="4.82463,2.61023 4.82703,3.02513 4.8272,3.05506 4.79726,3.05524 4.76576,3.05542 4.76576,2.61472 4.63779,2.06463 4.79152,2.06448 4.81525,2.06434 4.82074,2.08744 4.93174,2.55398 4.93867,2.58309 4.90965,2.59 "/>
  <path class="fil22" d="M2.38402 2.1786l0.0314449 0 0 -0.150016 -0.0631772 0.00952362 0 0.0199055 0.0317323 0 0 0.120587zm0.0911614 -0.100394l0.0300079 0.0075 0 -0.0305787 0.0845276 0 0 0.0193268 -0.103283 0.0634685c-0.000480315,0.000291339 -0.00134646,0.000866142 -0.00259449,0.00168504 -0.00125197,0.000866142 -0.00269291,0.00187402 -0.00427953,0.0030315 -0.00163386,0.00120079 -0.00317323,0.0025 -0.00466142,0.00384646 -0.00153937,0.0013937 -0.00279134,0.00273622 -0.00375197,0.00413386 -0.00153937,0.0025 -0.00250394,0.00495276 -0.00293701,0.00745276 -0.00038189,0.00244882 -0.000570866,0.00481102 -0.000527559,0.00697244l0 0.0135551 0.125209 0c0.00572441,-4.33071e-005 0.0103858,-0.000334646 0.0139449,-0.000909449 0.00355512,-0.000574803 0.00634252,-0.00134646 0.00827165,-0.0022126 0.0019685,-0.000866142 0.00341339,-0.00177953 0.00432283,-0.00264173 0.00245669,-0.00221654 0.00423622,-0.00481102 0.00529134,-0.00779134 0.00105906,-0.00298031 0.00168504,-0.00591339 0.0019252,-0.00875591 0.00023622,-0.00283071 0.000330709,-0.00509055 0.000287402,-0.00682283l0 -0.0118307 -0.0271181 -0.00779134 0 0.0216378 -0.0862638 0 0.0868425 -0.0527913c0.00437402,-0.00269291 0.00773622,-0.00495276 0.00999606,-0.00677953 0.00225984,-0.00183071 0.00394488,-0.00351181 0.00500394,-0.00504724 0.0019685,-0.00279134 0.00317323,-0.00582283 0.00370079,-0.00903937 0.000480315,-0.00322441 0.000720472,-0.00635039 0.000625984,-0.0094252l0 -0.00952362c4.72441e-005,-0.00173228 -5.11811e-005,-0.00399213 -0.000291339,-0.00682677 -0.000240157,-0.00283465 -0.000862205,-0.00577165 -0.00192126,-0.00874803 -0.00105512,-0.00298425 -0.00283858,-0.00557874 -0.0052874,-0.00779134 -0.000917323,-0.000913386 -0.00235827,-0.00177953 -0.00433071,-0.00264567 -0.00192126,-0.000862205 -0.00470866,-0.0016378 -0.00827165,-0.00220866 -0.00355512,-0.00057874 -0.00822047,-0.000913386 -0.0139409,-0.000913386l-0.0764488 0c-0.00572441,0 -0.0103858,0.000334646 -0.0139449,0.000913386 -0.00355512,0.000570866 -0.00629921,0.00134646 -0.00827165,0.00220866 -0.00197244,0.000866142 -0.00341339,0.00173228 -0.00432283,0.00264567 -0.00245669,0.0022126 -0.00423622,0.00480709 -0.00529528,0.00779134 -0.00105512,0.00297638 -0.0016811,0.00591339 -0.00192126,0.00874803 -0.000244094,0.00283465 -0.000338583,0.00509449 -0.000291339,0.00682677l0 0.0193307zm0.218394 0.0556811c-0.00148819,-4.72441e-005 -0.00298031,4.72441e-005 -0.00447244,0.000188976 -0.00148819,0.000145669 -0.00269291,0.00057874 -0.0036063,0.00125197 -0.000862205,0.000724409 -0.00144094,0.0016378 -0.00172835,0.0027874 -0.000338583,0.00115354 -0.000527559,0.00231102 -0.000527559,0.00346063 -4.72441e-005,0.00120472 -4.72441e-005,0.00216535 -4.72441e-005,0.00298031l0 0.0233701c0,0.00106299 0,0.00231102 9.44882e-005,0.00370472 9.44882e-005,0.0013937 0.000334646,0.00259449 0.000767717,0.00350787 0.000767717,0.00154331 0.00168504,0.00250394 0.00283858,0.00293307 0.00110236,0.000385827 0.00216142,0.00057874 0.00322441,0.000527559l0.0282677 0c0.00144094,0 0.00279134,-9.44882e-005 0.00399213,-0.000287402 0.00120079,-0.000188976 0.00220866,-0.000574803 0.00293307,-0.00115354 0.0011063,-0.000964567 0.00177559,-0.00225984 0.00201969,-0.00388976 0.000240157,-0.00168504 0.000338583,-0.00327559 0.000287402,-0.00476378l0 -0.0245197c0,-0.000531496 0,-0.00129921 -4.72441e-005,-0.00231102 -4.72441e-005,-0.000964567 -0.000240157,-0.00201969 -0.000484252,-0.0030748 -0.00023622,-0.0011063 -0.000622047,-0.00197244 -0.00120079,-0.00269291 -0.000913386,-0.000964567 -0.00187402,-0.00153937 -0.00288189,-0.00177953 -0.00105906,-0.000192913 -0.00201969,-0.000287402 -0.00288583,-0.000240157l-0.0265433 0zm0.216083 0.0447126c0.00255118,0 0.00538976,-0.000240157 0.00851181,-0.000720472 0.00307874,-0.000480315 0.00605906,-0.00129921 0.00899213,-0.00240157 0.00288583,-0.0011063 0.00533465,-0.00254724 0.00731102,-0.00437402 0.00216142,-0.00207087 0.00379528,-0.00433071 0.00480709,-0.00683071 0.00105512,-0.00244882 0.00172835,-0.00495276 0.00201575,-0.00740157 0.000291339,-0.0025 0.000433071,-0.00475984 0.000385827,-0.00683071l0 -0.0190394c4.72441e-005,-0.00225984 -0.000188976,-0.00475984 -0.000716535,-0.00745276 -0.000531496,-0.00274409 -0.00154331,-0.00543701 -0.00308268,-0.00817323 -0.00153937,-0.00274409 -0.00384252,-0.00519291 -0.00687008,-0.00745276 -0.00187795,-0.00124803 -0.0041378,-0.00240551 -0.00678346,-0.00346457 -0.00264173,-0.00105906 -0.00548031,-0.00192126 -0.00846457,-0.00259449 -0.00298031,-0.000673228 -0.00586614,-0.00105906 -0.00870079,-0.00115354 0.00264173,-0.000192913 0.00548425,-0.000724409 0.00851181,-0.00159055 0.00302756,-0.000862205 0.0058622,-0.00201575 0.00855512,-0.00346063 0.00269291,-0.00144094 0.00490551,-0.00312598 0.00659055,-0.00504331 0.00163386,-0.00197638 0.0027874,-0.00409055 0.00350787,-0.00630315 0.000771654,-0.00225984 0.00125197,-0.0044252 0.00144094,-0.00653937 0.00019685,-0.00206693 0.000291339,-0.00384646 0.000244094,-0.00533465l0 -0.0144252c4.72441e-005,-0.00255118 -9.84252e-005,-0.00514567 -0.000385827,-0.00788583 -0.000338583,-0.00274016 -0.00100787,-0.00533858 -0.00206693,-0.00788583 -0.0011063,-0.00254724 -0.00279134,-0.00475984 -0.00504724,-0.00673228 -0.000917323,-0.000913386 -0.00235827,-0.00177953 -0.00432677,-0.00264567 -0.0019252,-0.000862205 -0.0047126,-0.0016378 -0.00827559,-0.00220866 -0.00355512,-0.00057874 -0.00822047,-0.000913386 -0.0139409,-0.000913386l-0.0842402 0c-0.00197244,-5.11811e-005 -0.00437795,9.44882e-005 -0.0072126,0.000334646 -0.00279134,0.000240157 -0.00562598,0.000814961 -0.00846457,0.00163386 -0.00283465,0.000818898 -0.00533465,0.00206693 -0.00740551,0.00379921 -0.00216142,0.00197244 -0.00379921,0.00418504 -0.00490157,0.00663386 -0.00105906,0.00245276 -0.00177953,0.00495276 -0.00211811,0.00750394 -0.000334646,0.00254724 -0.000527559,0.00494882 -0.000480315,0.0072126l0 0.011252 0.0294291 0.00548031 0 -0.0184646 0.0752953 0c0.00100787,0 0.00211811,4.72441e-005 0.0033189,0.000145669 0.00120079,0.000141732 0.00240551,0.000429134 0.00355906,0.000814961 0.00114961,0.000433071 0.00216142,0.00105512 0.00293307,0.0019252 0.000866142,0.000909449 0.00144094,0.00192126 0.00182677,0.0030748 0.00038189,0.00115354 0.000574803,0.00226378 0.000669291,0.00336614 0.000102362,0.00105906 0.000102362,0.00187402 0.000102362,0.00250394l0 0.011248c0,0.000527559 0,0.00129921 -0.000102362,0.00230709 -9.44882e-005,0.00101181 -0.000287402,0.00211811 -0.000669291,0.00327165 -0.000385827,0.00114961 -0.00096063,0.00216535 -0.00182677,0.00307874 -0.00105906,0.00110236 -0.00245669,0.00191732 -0.00423228,0.00230315 -0.00173228,0.000433071 -0.00351181,0.000629921 -0.00529134,0.00057874l-0.0467362 0 0 0.0242362 0.0516417 0c0.00168504,-5.11811e-005 0.00346457,0.000141732 0.00538583,0.000574803 0.0019252,0.000385827 0.00350787,0.00115748 0.0047126,0.00230709 0.000956693,0.000913386 0.00163386,0.00197244 0.00201969,0.00317717 0.000433071,0.00119685 0.000669291,0.00235039 0.000771654,0.00346063 9.44882e-005,0.0011063 0.000141732,0.0019685 9.44882e-005,0.00259843l0 0.0138465c0,0.00177953 -0.00019685,0.00350787 -0.000677165,0.00514567 -0.000476378,0.00162992 -0.00119685,0.00288189 -0.00220866,0.00379528 -0.000866142,0.000862205 -0.0019685,0.00144488 -0.00317323,0.00182677 -0.00125197,0.00038189 -0.00250394,0.00057874 -0.00370472,0.000673228 -0.00124803,9.44882e-005 -0.00230709,9.44882e-005 -0.00322047,9.44882e-005l-0.0816457 0 0 -0.0204803 -0.0305787 0.00634646 0 0.0126929c-4.72441e-005,0.00216535 9.84252e-005,0.00457087 0.00038189,0.0072126 0.000244094,0.00264567 0.000866142,0.00529134 0.00177953,0.00788583 0.000866142,0.00259843 0.00231102,0.00485433 0.00418504,0.00682677 0.0022126,0.00206693 0.00490551,0.0036063 0.00812598,0.00451969 0.00322047,0.00096063 0.00649213,0.00154331 0.00981102,0.00177953 0.0033622,0.000291339 0.00629528,0.000385827 0.0088937,0.000334646l0.0917402 0zm0.0937638 -0.0351929c-4.72441e-005,0.0027874 0.000141732,0.00591339 0.000480315,0.00942126 0.000334646,0.00351575 0.00100787,0.00697638 0.00206693,0.0102913 0.00100787,0.0033189 0.00259843,0.00605906 0.00466142,0.00827165 0.00216535,0.00206693 0.00485827,0.00365354 0.0080315,0.00470866 0.00317323,0.00101575 0.00644094,0.00168504 0.00981102,0.00202362 0.00331496,0.000334646 0.00634252,0.000527559 0.00898819,0.000476378l0.100685 0c0.00268898,5.11811e-005 0.00567323,-0.000141732 0.00899213,-0.000476378 0.00336614,-0.000338583 0.00663386,-0.00100787 0.00981102,-0.00202362 0.00316929,-0.00105512 0.0058622,-0.00264173 0.00802756,-0.00470866 0.00206693,-0.0022126 0.00365354,-0.00495276 0.0047126,-0.00827165 0.00100787,-0.00331496 0.00172835,-0.00677559 0.00206693,-0.0102913 0.000291339,-0.00350787 0.000480315,-0.00663386 0.000433071,-0.00942126l0 -0.0784724c4.72441e-005,-0.0027874 -0.000141732,-0.00591339 -0.000433071,-0.0094252 -0.000338583,-0.00355906 -0.00105906,-0.00697244 -0.00206693,-0.0102874 -0.00105906,-0.0033189 -0.00264567,-0.00605512 -0.0047126,-0.00827165 -0.00216535,-0.00206693 -0.00485827,-0.00365354 -0.00802756,-0.00470866 -0.00317717,-0.00101575 -0.00644488,-0.00173228 -0.00981102,-0.00201969 -0.0033189,-0.000338583 -0.00630315,-0.000531496 -0.00899213,-0.000480315l-0.100685 0c-0.00264567,-5.11811e-005 -0.00567323,0.000141732 -0.00898819,0.000480315 -0.00337008,0.000287402 -0.0066378,0.00100394 -0.00981102,0.00201969 -0.00317323,0.00105512 -0.00586614,0.00264173 -0.0080315,0.00470866 -0.00206299,0.00221654 -0.00365354,0.00495276 -0.00466142,0.00827165 -0.00105906,0.00331496 -0.00173228,0.00672835 -0.00206693,0.0102874 -0.000338583,0.00351181 -0.000527559,0.0066378 -0.000480315,0.0094252l0 0.0784724zm0.0317323 0.0080748l0 -0.0963543 0.105299 0 0 0.0963543 -0.105299 0z"/>
  <path class="fil22" d="M2.71301 2.21322l-0.0221535 0 0 0.0952717 0.0936063 0 0 -0.0173543 -0.0714528 0 0 -0.0779173zm0.115764 0.0171693l-0.0188307 0 0 0.0781024 0.0188307 0 0 -0.0781024zm0.0812402 0.0138504l0.0378504 0 0 -0.0138504 -0.0945315 0 0 0.0138504 0.0378504 0 0 0.064252 0.0188307 0 0 -0.064252zm0.0574213 -0.0138504l0 0.0781024 0.0188346 0 0 -0.0291732 0.0182795 0 0.0323071 0.0291732 0.0273307 0 -0.0367441 -0.0291732 0.0103386 0c0.00138583,0 0.0028622,-9.05512e-005 0.00446457,-0.000279528 0.00159843,-0.000181102 0.00316929,-0.000488189 0.00467717,-0.00092126 0.00150394,-0.000429134 0.00283071,-0.00101575 0.0039685,-0.00175197 0.00156693,-0.00114173 0.00274016,-0.00243307 0.00347638,-0.00384646 0.000740157,-0.00144882 0.00120079,-0.0028622 0.00141732,-0.00431102 0.000216535,-0.00141339 0.000307087,-0.00270472 0.000275591,-0.00384252l0 -0.0188307c3.14961e-005,-0.00114567 -5.90551e-005,-0.00240551 -0.000244094,-0.0038189 -0.000188976,-0.00138583 -0.000614173,-0.00279921 -0.00129528,-0.00421654 -0.000645669,-0.00138583 -0.00168898,-0.00264567 -0.0030748,-0.00378346 -0.000984252,-0.000862205 -0.00252362,-0.00162992 -0.0046811,-0.00227953 -0.00215354,-0.000677165 -0.0051378,-0.00101575 -0.00898425,-0.00104724l-0.0703465 0zm0.0625945 0.0138504c0.000984252,-3.14961e-005 0.00209449,5.90551e-005 0.00329134,0.000244094 0.00123228,0.000185039 0.00230709,0.00061811 0.00316929,0.00123228 0.000893701,0.000771654 0.00141339,0.00159843 0.00163386,0.00246063 0.000181102,0.000893701 0.000244094,0.00166142 0.000212598,0.00233858l0 0.00867717c6.29921e-005,0.000862205 -3.14961e-005,0.00172441 -0.000244094,0.00261811 -0.000220472,0.00092126 -0.00080315,0.00169291 -0.0017874,0.00237008 -0.000334646,0.000216535 -0.000984252,0.000492126 -0.002,0.000799213 -0.00101181,0.00030315 -0.00255512,0.00046063 -0.00464961,0.000492126l-0.0433858 0 0 -0.0212323 0.0437598 0zm0.0574173 -0.0138504l0 0.0781024 0.084752 0 0 -0.0147717 -0.0659173 0 0 -0.0188346 0.0380354 0 0 -0.0138465 -0.0380354 0 0 -0.0167992 0.0649921 0 0 -0.0138504 -0.0838268 0z"/>
  <path class="fil4" d="M2.79575 3.72462c-0.0886417,0.0566457 -0.141272,0.151717 -0.198071,0.202543 -0.360346,0.322484 -0.532437,-0.430661 0.198071,-0.202543z"/>
  <path class="fil23" d="M2.24981 4.00155c0.0746378,-0.0826575 0.137524,-0.172606 0.26374,-0.216882 0.0511457,-0.0179409 0.0618898,-0.0255984 0.11765,-0.032374l-0.000602362 7.87402e-005c0.022937,-0.000535433 0.0321496,0.00248031 0.053626,0.00656693 -0.0177717,0.000582677 -0.00514567,0.000779528 -0.0264606,-0.00101969 -0.0513307,-0.00433071 -0.0940866,0.0181181 -0.140736,0.0359764 -0.131232,0.0502441 -0.183661,0.144606 -0.26678,0.234654l-0.000437008 -0.027z"/>
  <path class="fil23" d="M2.47475 3.80165c0.00867717,-0.000204724 0.0175591,-8.66142e-005 0.0266654,0.000405512 0.0457244,0.00246457 0.0565827,-5.11811e-005 0.102315,0.012622l-0.000496063 -0.000133858c0.0180866,0.00697244 0.024311,0.0122953 0.0397677,0.0224055 -0.0140669,-0.00526772 -0.00427165,-0.00104724 -0.0203386,-0.0093189 -0.0386969,-0.0199213 -0.0793189,-0.0161654 -0.121508,-0.0172441 -0.00926772,-0.000240157 -0.0182441,-0.000110236 -0.0269685,0.000346457 0.00134252,-0.00284252 0.00153543,-0.00610236 0.000562992,-0.00908268z"/>
  <path class="fil23" d="M2.38484 3.85775c0.000496063,2.3622e-005 0.000984252,3.93701e-005 0.00148031,6.69291e-005 0.054122,0.00291732 0.0669724,-6.29921e-005 0.121106,0.0149409l-0.000590551 -0.00015748c0.0214094,0.00825197 0.0287756,0.0145512 0.0470709,0.0265197 -0.0166496,-0.00623622 -0.00505512,-0.00124016 -0.0240748,-0.0110315 -0.0457992,-0.0235787 -0.0938819,-0.0191339 -0.143819,-0.0204134l-0.00107087 -1.9685e-005c0.00111811,-0.00320079 0.00108268,-0.00672835 -0.000102362,-0.00990551z"/>
  <path class="fil23" d="M2.52899 3.78807c0.00379921,-0.00438189 0.00738583,-0.00890945 0.0107362,-0.0136024 0.0168189,-0.0235472 0.0236181,-0.0287362 0.0312244,-0.053626l-8.66142e-005 0.000271654c0.00124016,-0.0101024 -0.000968504,-0.0139606 -0.00365748,-0.0231339 -0.00110236,0.00783465 -0.000834646,0.00230709 -5.90551e-005,0.0115512 0.0018622,0.0222638 -0.0184488,0.0424094 -0.0350433,0.0639803 -0.00364567,0.00474016 -0.0075,0.00928346 -0.0115472,0.0136575 0.00312205,-0.000311024 0.00614567,1.5748e-005 0.00843307,0.000901575z"/>
  <path class="fil23" d="M2.41357 3.84588c0.000216535,-0.00030315 0.000440945,-0.000602362 0.00065748,-0.000909449 0.0236496,-0.0333425 0.0324606,-0.0403425 0.0456063,-0.0767126l-0.000149606 0.000393701c0.0031811,-0.0149646 0.00126772,-0.0209803 -0.000283465,-0.0349961 -0.00263386,0.0115945 -0.00137008,0.00335433 -0.00205512,0.0172638 -0.00165748,0.0334961 -0.0287913,0.0613622 -0.0518386,0.0917717l-0.000503937 0.000653543c0.00332677,0.000125984 0.00637402,0.00102756 0.00856693,0.00253543z"/>
  <path class="fil4" d="M2.01809 3.84035c0.0430709,0.0275236 0.0686457,0.0737165 0.0962441,0.0984134 0.175091,0.156693 0.258705,-0.209256 -0.0962441,-0.0984134z"/>
  <path class="fil24" d="M2.28336 3.97491c-0.0362638,-0.0401654 -0.0668189,-0.0838701 -0.12815,-0.105382 -0.0248504,-0.00871654 -0.0300709,-0.012437 -0.0571654,-0.0157283l0.000295276 3.54331e-005c-0.0111457,-0.000259843 -0.015622,0.00120472 -0.0260591,0.00318898 0.0086378,0.000287402 0.00250394,0.00038189 0.0128583,-0.000492126 0.0249409,-0.0021063 0.0457165,0.00880315 0.0683819,0.0174803 0.0637677,0.0244134 0.0892402,0.0702638 0.129626,0.114016l0.000212598 -0.0131181z"/>
  <path class="fil24" d="M2.17407 3.87778c-0.00421654,-0.000102362 -0.0085315,-4.33071e-005 -0.0129567,0.00019685 -0.0222165,0.00119685 -0.0274921,-2.75591e-005 -0.0497165,0.00612992l0.000244094 -6.29921e-005c-0.0087874,0.00338583 -0.011811,0.00597244 -0.0193228,0.0108858 0.00683465,-0.00255906 0.0020748,-0.000507874 0.00988189,-0.00452756 0.0188031,-0.0096811 0.0385394,-0.00785433 0.0590394,-0.00837795 0.00450394,-0.00011811 0.00886614,-5.51181e-005 0.0131063,0.000165354 -0.000653543,-0.00137795 -0.000748031,-0.00296063 -0.000275591,-0.00440945z"/>
  <path class="fil24" d="M2.21775 3.90504c-0.000240157,1.1811e-005 -0.000476378,2.3622e-005 -0.000716535,3.54331e-005 -0.0262992,0.00141732 -0.0325433,-3.14961e-005 -0.0588465,0.00725984l0.000287402 -7.87402e-005c-0.0104016,0.00401181 -0.0139803,0.00707087 -0.0228701,0.0128858 0.00809055,-0.0030315 0.00245276,-0.000602362 0.0116969,-0.00535827 0.022252,-0.0114567 0.0456142,-0.00929921 0.069878,-0.00992126l0.000523622 -7.87402e-006c-0.000543307,-0.00155512 -0.000527559,-0.00326772 4.72441e-005,-0.00481496z"/>
  <path class="fil24" d="M2.14771 3.87119c-0.00184646,-0.00212992 -0.00359055,-0.00432677 -0.00521654,-0.0066063 -0.00817323,-0.0114449 -0.0114764,-0.0139646 -0.0151732,-0.0260591l4.33071e-005 0.000129921c-0.000602362,-0.00490551 0.000472441,-0.00677953 0.00177559,-0.0112402 0.000535433,0.00381102 0.000405512,0.00112205 2.75591e-005,0.00561417 -0.000901575,0.0108189 0.00896457,0.0206063 0.0170276,0.0310866 0.00177165,0.00230315 0.00364567,0.00451181 0.00561417,0.0066378 -0.00151969,-0.000153543 -0.00298819,7.87402e-006 -0.00409843,0.000437008z"/>
  <path class="fil24" d="M2.2038 3.89928c-0.000106299,-0.000145669 -0.000212598,-0.000291339 -0.000318898,-0.000440945 -0.0114921,-0.0162008 -0.0157717,-0.0196024 -0.0221575,-0.0372756l7.08661e-005 0.000192913c-0.00154724,-0.00727165 -0.00061811,-0.0101929 0.000137795,-0.0170039 0.00127953,0.00562992 0.000665354,0.00162992 0.001,0.00838583 0.00080315,0.0162756 0.0139882,0.029815 0.025185,0.0445945l0.000244094 0.000314961c-0.00161417,6.29921e-005 -0.00309449,0.0005 -0.00416142,0.00123228z"/>
 </g>
</svg>
