<?xml version="1.0" encoding="UTF-8"?>
<!DOCTYPE svg PUBLIC "-//W3C//DTD SVG 1.1//EN" "http://www.w3.org/Graphics/SVG/1.1/DTD/svg11.dtd">
<!-- Creator: CorelDRAW -->
<svg xmlns="http://www.w3.org/2000/svg" xml:space="preserve" width="6.82666in" height="6.82666in" style="shape-rendering:geometricPrecision; text-rendering:geometricPrecision; image-rendering:optimizeQuality; fill-rule:evenodd; clip-rule:evenodd"
viewBox="0 0 6.82666 6.82666"
 xmlns:xlink="http://www.w3.org/1999/xlink">
 <defs>
  <style type="text/css">
   <![CDATA[
    .fil0 {fill:none}
    .fil1 {fill:#0288D1}
    .fil2 {fill:#29B6F6}
    .fil3 {fill:#4FC3F7}
    .fil4 {fill:#81D4FA}
   ]]>
  </style>
 </defs>
 <g id="Layer_x0020_1">
  <metadata id="CorelCorpID_0Corel-Layer"/>
  <g id="_209413248">
   <rect id="_209413440" class="fil0" width="6.82666" height="6.82666"/>
   <rect id="_209413752" class="fil0" x="0.853331" y="0.853331" width="5.12" height="5.12"/>
  </g>
  <path class="fil1" d="M2.86549 5.09733c0,0.154831 0.0529528,0.283339 0.158807,0.389189 0.109543,0.10952 0.241744,0.162524 0.396728,0.166244 0.155008,-0.00372047 0.283386,-0.0567244 0.389236,-0.166244 0.10965,-0.10585 0.1625,-0.234358 0.1625,-0.389189 0,-0.155004 -0.0528504,-0.287228 -0.1625,-0.396776 -0.0340433,-0.0340472 -0.0679843,-0.0605236 -0.102031,-0.0793504 -0.0868661,-0.0491575 -0.181354,-0.0755039 -0.287205,-0.0755039 -0.147287,-0.00394882 -0.275795,0.0453031 -0.381618,0.143488 -0.00756693,0.00382283 -0.0112638,0.00753937 -0.0151102,0.0113661 -0.105854,0.109547 -0.158858,0.241772 -0.158858,0.396776l5.11811e-005 0z"/>
  <path class="fil2" d="M4.31219 3.96517c-0.0655236,-0.0586929 -0.135752,-0.111941 -0.210492,-0.158362 -0.0708819,-0.0440276 -0.14552,-0.0816496 -0.223402,-0.11165 -0.0777283,-0.029937 -0.158051,-0.0523819 -0.24002,-0.0672008 -0.0853583,-0.0154331 -0.17213,-0.0222362 -0.258831,-0.0222362 -0.171157,0 -0.339886,0.0270394 -0.500118,0.0881181 -0.157882,0.060185 -0.299457,0.150008 -0.424547,0.263295 -0.0870039,0.0787913 -0.221961,0.0720315 -0.300701,-0.015 -0.0787244,-0.0870079 -0.0719685,-0.22187 0.0149921,-0.30063 0.164406,-0.14889 0.350929,-0.267071 0.558437,-0.346169 0.208921,-0.0796378 0.428642,-0.116283 0.651937,-0.116283 0.11211,0 0.223965,0.00986614 0.334291,0.029811 0.108543,0.019626 0.214969,0.0492441 0.317906,0.0888937 0.102811,0.0395984 0.201531,0.0888701 0.295118,0.146996 0.0957244,0.0594567 0.185524,0.128024 0.269433,0.203181 0.0874055,0.0782874 0.0949055,0.213122 0.0166575,0.300575 -0.0782717,0.0874803 -0.213213,0.0949882 -0.300661,0.0166614z"/>
  <path class="fil3" d="M4.88663 3.1831c-0.42911,-0.383846 -0.982197,-0.591555 -1.55718,-0.593583 -0.576173,-0.00203543 -1.13394,0.202902 -1.56778,0.583102 -0.0880748,0.0771811 -0.223476,0.0681378 -0.300579,-0.0199803 -0.0770709,-0.0880827 -0.0680354,-0.223335 0.0199724,-0.300461 0.511685,-0.448421 1.16943,-0.690894 1.84914,-0.688496 0.679531,0.00239764 1.33324,0.248496 1.84032,0.702087 0.0874803,0.078252 0.0949685,0.213154 0.0167087,0.300622 -0.0782598,0.0874646 -0.213134,0.0949528 -0.300606,0.0167087z"/>
  <path class="fil4" d="M1.06354 1.83393c0.651425,-0.570232 1.48861,-0.875811 2.35317,-0.872917 0.864598,0.0028937 1.69946,0.314272 2.34732,0.888579 0.0878031,0.0778346 0.096063,0.212614 0.0182913,0.300504 -0.0778071,0.0879291 -0.21276,0.0962008 -0.300638,0.0182992 -0.57015,-0.505417 -1.30487,-0.779004 -2.06569,-0.781547 -0.761051,-0.00254724 -1.49837,0.265524 -2.07194,0.767602 -0.0880945,0.0771142 -0.223441,0.0680827 -0.300531,-0.0200197 -0.0770827,-0.0880984 -0.0680551,-0.223402 0.0200197,-0.3005z"/>
 </g>
</svg>
